<svg width="43" height="87" viewBox="0 0 43 87" fill="none" xmlns="http://www.w3.org/2000/svg">
<path d="M27.5312 32.2155L25.8593 41.5492L31.081 42.3331C31.081 42.3331 31.5337 32.6336 31.081 32.5813C30.6283 32.5343 27.5312 32.2155 27.5312 32.2155Z" fill="#A8754B"/>
<path d="M32.4167 22.84C32.4167 22.84 27.1995 23.6971 26.2627 32.9524C26.2627 32.9524 27.9256 35.0376 30.0456 34.3948L32.4167 22.84Z" fill="#FF9C1A"/>
<path d="M34.6802 22.5212C34.6802 22.5212 39.7629 21.9359 41.5513 26.1115C43.3441 30.2871 38.118 34.6351 39.9108 44.204L28.6427 43.5089V35.0689C28.6427 35.0689 26.5899 31.5779 29.4988 27.8361C29.4988 27.8361 29.6736 22.1502 34.6802 22.5212Z" fill="#ED250A"/>
<path d="M17.917 45.5575C17.917 45.5575 14.2641 43.9793 13.2825 48.1131C12.3009 52.2416 8.23111 79.234 8.23111 79.234H11.4941L13.4125 68.505C13.4125 68.505 16.1197 64.9879 16.9489 57.5199L28.3335 55.9364L17.917 45.5575Z" fill="#B5845B"/>
<path d="M25.3842 55.4347C25.3842 55.4347 23.4479 55.372 20.0101 54.0968C16.5724 52.8164 14.1206 54.17 15.4742 58.6853C16.8278 63.1953 23.6676 84.0994 23.6676 84.0994L26.2582 83.1953L24.0217 69.6599C24.0217 69.6599 23.4972 62.9445 21.0679 59.0093C21.0679 59.0093 26.1776 59.3072 27.9256 58.9936C29.6647 58.6853 25.3842 55.4347 25.3842 55.4347Z" fill="#A8754B"/>
<path d="M39.9108 44.204C39.9108 44.204 44.0433 50.261 39.0726 56.2082C39.0726 56.2082 36.5134 59.6835 25.2318 59.14C25.2318 59.14 22.2736 47.4964 15.9807 44.366L29.0058 42.3331L39.9108 44.204Z" fill="#ED250A"/>
<path d="M34.4023 7.05745C34.4023 7.05745 33.0576 0.676489 37.7146 0.639907C41.1613 0.613777 42.1877 5.41647 37.9611 8.63048L34.4023 7.05745Z" fill="#190D08"/>
<path d="M38.118 9.79065C38.118 9.79065 38.9606 7.28218 36.5582 6.01225C34.1558 4.74233 33.3893 7.74728 33.3893 7.74728L38.118 9.79065Z" fill="#ED250A"/>
<path d="M28.9923 15.4975C28.9923 15.4975 25.5232 13.104 29.2747 8.29605C31.6189 5.29109 35.7245 5.45831 38.0104 8.43714C40.2963 11.416 38.1404 16.6681 38.1404 16.6681L36.5851 13.6527L35.2225 11.3115L33.2728 10.4021L31.7444 10.5275L30.449 10.7209L29.4047 11.2331L28.9923 15.4975Z" fill="#27160C"/>
<path d="M31.8259 17.4315L35.7249 16.8476L36.5141 24.0115L32.6151 24.5954L31.8259 17.4315Z" fill="#B5845B"/>
<path d="M36.1324 18.978C36.1324 18.978 35.7111 21.5858 33.9137 22.1136C33.3535 22.2756 32.7439 22.0875 32.4032 21.5492C32.3091 21.4029 32.2419 21.2356 32.2195 21.0475C32.1343 20.2949 33.8375 18.978 33.8375 18.978H36.1324Z" fill="#A8754B"/>
<path d="M33.3848 20.8332L33.5865 20.8019C35.8231 20.4674 37.4053 18.0791 37.1184 15.4713L36.8898 13.4018C36.603 10.7941 34.5547 8.94927 32.3181 9.28373L32.1164 9.31509C29.8798 9.64955 28.2976 12.0378 28.5845 14.6456L28.813 16.7151C29.0999 19.3229 31.1482 21.1677 33.3848 20.8332Z" fill="#B5845B"/>
<path d="M36.6792 14.954C36.6792 14.954 33.8734 13.8879 33.9451 10.214C33.9451 10.214 33.7658 7.47554 36.222 10.0102C38.6782 12.5448 36.6792 14.954 36.6792 14.954Z" fill="#27160C"/>
<path d="M36.0607 15.9574C36.1593 16.8353 36.845 17.4572 37.6025 17.3422C38.3555 17.2273 38.8889 16.4277 38.7903 15.5497C38.6917 14.6718 38.0059 14.0498 37.2484 14.1648C36.4954 14.2746 35.9621 15.0794 36.0607 15.9574Z" fill="#B5845B"/>
<path d="M35.1598 13.1144L35.2853 14.2746C35.5721 15.9103 36.1637 15.4139 36.3789 14.7083L35.1598 13.1144Z" fill="#27160C"/>
<path d="M28.1542 12.5239C28.1542 12.5239 31.0183 15.0271 35.218 11.3167C38.1135 8.76115 33.7344 7.84137 33.7344 7.84137L29.6512 8.82385L28.1542 12.5239Z" fill="#27160C"/>
<path d="M36.5089 24.0054C36.5089 24.0054 34.0571 29.106 32.3181 27.5382C30.4401 25.845 34.6802 22.5212 34.6802 22.5212L36.5089 24.0054Z" fill="#B5845B"/>
<path d="M35.4242 34.3947C35.4242 34.3947 33.9092 37.6506 32.8739 40.2061L21.8299 39.464C21.8299 39.464 19.6381 37.3736 17.9215 39.14L19.6157 41.5126L33.4431 45.0819C33.972 45.2178 34.5233 45.0401 34.9132 44.6116C36.1369 43.2633 38.7992 40.1225 40.0901 36.9189L35.4242 34.3947Z" fill="#B5845B"/>
<path d="M4.77091 29.3725H18.3428C18.791 29.3725 19.1765 29.7384 19.2661 30.2453L21.8209 44.2249C21.9464 44.9095 21.4982 45.5575 20.8976 45.5575H7.09713C6.64444 45.5575 6.25449 45.1812 6.16933 44.6639L3.83862 30.6843C3.73105 30.0049 4.17927 29.3725 4.77091 29.3725Z" fill="#B2B2B2"/>
<path d="M3.99101 29.3725H17.5629C18.0111 29.3725 18.3966 29.7384 18.4862 30.2453L21.041 44.2249C21.1665 44.9095 20.7183 45.5575 20.1177 45.5575H6.31724C5.86454 45.5575 5.4746 45.1812 5.38944 44.6639L3.05874 30.6843C2.95117 30.0049 3.39489 29.3725 3.99101 29.3725Z" fill="#D1D1D1"/>
<path d="M21.4624 44.366H30.7359C31.0183 44.366 31.2468 44.6325 31.2468 44.9617C31.2468 45.291 31.0183 45.5575 30.7359 45.5575H21.2831L21.4624 44.366Z" fill="#B2B2B2"/>
<path d="M12.395 37.1018C12.395 38.053 11.7317 38.8264 10.9159 38.8264C10.1002 38.8264 9.43681 38.053 9.43681 37.1018C9.43681 36.1507 10.1002 35.3772 10.9159 35.3772C11.7317 35.3772 12.395 36.1455 12.395 37.1018Z" fill="white"/>
<path d="M40.0901 24.0786C40.2739 24.1727 46.3561 27.6584 40.3725 38.4606C40.3725 38.4606 36.5492 38.5338 34.335 35.2152C34.3306 35.2152 35.0656 21.5074 40.0901 24.0786Z" fill="#FF9C1A"/>
<path d="M26.9619 82.6048C26.8813 82.3226 26.6168 82.218 26.4375 82.4009C26.0879 82.7615 25.4604 83.2058 24.5371 83.096C23.5734 82.9863 23.2149 82.3225 23.0759 81.847C23.0042 81.5961 22.798 81.4707 22.6143 81.5752L16.7785 84.993C16.4244 85.2021 16.1466 85.5888 16.0121 86.0696C15.8821 86.5243 16.1421 87.0103 16.5096 86.9998L26.5899 86.6758C26.9888 86.6654 27.2891 86.2107 27.2578 85.6829L27.0919 83.0908C27.0874 83.049 27.0829 83.0072 27.0695 82.9654L26.9619 82.6048Z" fill="#180401"/>
<path d="M12.2471 78.1313C12.2292 77.8334 12.0006 77.6505 11.7899 77.7759C11.3731 78.0163 10.6694 78.2515 9.79985 77.8648C8.89894 77.4624 8.69724 76.715 8.67035 76.2133C8.65691 75.952 8.48658 75.7639 8.28489 75.8109L1.88441 77.3317C1.49446 77.4258 1.14038 77.7132 0.89834 78.1365C0.669751 78.5337 0.813182 79.0824 1.16727 79.1817L10.9697 81.9463C11.3552 82.056 11.7496 81.7111 11.8347 81.1885L12.2561 78.6382C12.265 78.5964 12.265 78.5546 12.265 78.5076L12.2471 78.1313Z" fill="#180401"/>
</svg>
