<svg width="95" height="166" viewBox="0 0 95 166" fill="none" xmlns="http://www.w3.org/2000/svg">
<path d="M60.4545 61.06L56.7245 78.92L68.3745 80.42C68.3745 80.42 69.3845 61.86 68.3745 61.76C67.3645 61.67 60.4545 61.06 60.4545 61.06Z" fill="#A8754B"/>
<path d="M71.3545 43.12C71.3545 43.12 59.7145 44.76 57.6245 62.47C57.6245 62.47 61.3345 66.46 66.0645 65.23L71.3545 43.12Z" fill="#FF9C1A"/>
<path d="M76.4045 42.51C76.4045 42.51 87.7445 41.39 91.7345 49.38C95.7345 57.37 84.0745 65.69 88.0745 84L62.9345 82.67V66.52C62.9345 66.52 58.3545 59.84 64.8445 52.68C64.8445 52.68 65.2345 41.8 76.4045 42.51Z" fill="#ED250A"/>
<path d="M39.0045 86.59C39.0045 86.59 30.8545 83.57 28.6645 91.48C26.4745 99.38 17.3945 151.03 17.3945 151.03H24.6745L28.9545 130.5C28.9545 130.5 34.9945 123.77 36.8445 109.48L62.2445 106.45L39.0045 86.59Z" fill="#B5845B"/>
<path d="M55.6645 105.49C55.6645 105.49 51.3445 105.37 43.6745 102.93C36.0045 100.48 30.5345 103.07 33.5545 111.71C36.5745 120.34 51.8345 160.34 51.8345 160.34L57.6145 158.61L52.6245 132.71C52.6245 132.71 51.4545 119.86 46.0345 112.33C46.0345 112.33 57.4345 112.9 61.3345 112.3C65.2145 111.71 55.6645 105.49 55.6645 105.49Z" fill="#A8754B"/>
<path d="M88.0745 84C88.0745 84 97.2945 95.59 86.2045 106.97C86.2045 106.97 80.4945 113.62 55.3245 112.58C55.3245 112.58 48.7245 90.3 34.6845 84.31L63.7445 80.42L88.0745 84Z" fill="#ED250A"/>
<path d="M75.7845 12.92C75.7845 12.92 72.7845 0.710004 83.1745 0.640004C90.8645 0.590004 93.1545 9.77998 83.7245 15.93L75.7845 12.92Z" fill="#190D08"/>
<path d="M84.0745 18.15C84.0745 18.15 85.9545 13.35 80.5945 10.92C75.2345 8.49001 73.5245 14.24 73.5245 14.24L84.0745 18.15Z" fill="#ED250A"/>
<path d="M63.7145 29.07C63.7145 29.07 55.9745 24.49 64.3445 15.29C69.5745 9.54002 78.7345 9.86001 83.8345 15.56C88.9345 21.26 84.1245 31.31 84.1245 31.31L80.6545 25.54L77.6145 21.06L73.2645 19.32L69.8545 19.56L66.9645 19.93L64.6345 20.91L63.7145 29.07Z" fill="#27160C"/>
<path d="M70.0364 32.7708L78.7354 31.6535L80.4961 45.3615L71.7971 46.4788L70.0364 32.7708Z" fill="#B5845B"/>
<path d="M79.6445 35.73C79.6445 35.73 78.7045 40.72 74.6945 41.73C73.4445 42.04 72.0845 41.68 71.3245 40.65C71.1145 40.37 70.9645 40.05 70.9145 39.69C70.7245 38.25 74.5245 35.73 74.5245 35.73H79.6445Z" fill="#A8754B"/>
<path d="M73.5145 39.28L73.9645 39.22C78.9545 38.58 82.4845 34.01 81.8445 29.02L81.3345 25.06C80.6945 20.07 76.1245 16.54 71.1345 17.18L70.6845 17.24C65.6945 17.88 62.1645 22.45 62.8045 27.44L63.3145 31.4C63.9545 36.39 68.5245 39.92 73.5145 39.28Z" fill="#B5845B"/>
<path d="M80.8645 28.03C80.8645 28.03 74.6045 25.99 74.7645 18.96C74.7645 18.96 74.3645 13.72 79.8445 18.57C85.3245 23.42 80.8645 28.03 80.8645 28.03Z" fill="#27160C"/>
<path d="M79.4845 29.95C79.7045 31.63 81.2345 32.82 82.9245 32.6C84.6045 32.38 85.7945 30.85 85.5745 29.17C85.3545 27.49 83.8245 26.3 82.1345 26.52C80.4545 26.73 79.2645 28.27 79.4845 29.95Z" fill="#B5845B"/>
<path d="M77.4745 24.51L77.7545 26.73C78.3945 29.86 79.7145 28.91 80.1945 27.56L77.4745 24.51Z" fill="#27160C"/>
<path d="M61.8445 23.38C61.8445 23.38 68.2345 28.17 77.6045 21.07C84.0645 16.18 74.2945 14.42 74.2945 14.42L65.1845 16.3L61.8445 23.38Z" fill="#27160C"/>
<path d="M80.4845 45.35C80.4845 45.35 75.0145 55.11 71.1345 52.11C66.9445 48.87 76.4045 42.51 76.4045 42.51L80.4845 45.35Z" fill="#B5845B"/>
<path d="M78.0645 65.23C78.0645 65.23 74.6845 71.46 72.3745 76.35L47.7345 74.93C47.7345 74.93 42.8445 70.93 39.0145 74.31L42.7945 78.85L73.6445 85.68C74.8245 85.94 76.0545 85.6 76.9245 84.78C79.6545 82.2 85.5945 76.19 88.4745 70.06L78.0645 65.23Z" fill="#B5845B"/>
<path d="M9.67446 55.62H39.9545C40.9545 55.62 41.8145 56.32 42.0145 57.29L47.7145 84.04C47.9945 85.35 46.9945 86.59 45.6545 86.59H14.8645C13.8545 86.59 12.9845 85.87 12.7945 84.88L7.59446 58.13C7.35446 56.83 8.35446 55.62 9.67446 55.62Z" fill="#B2B2B2"/>
<path d="M7.93446 55.62H38.2145C39.2145 55.62 40.0745 56.32 40.2745 57.29L45.9745 84.04C46.2545 85.35 45.2545 86.59 43.9145 86.59H13.1245C12.1145 86.59 11.2445 85.87 11.0545 84.88L5.85447 58.13C5.61447 56.83 6.60446 55.62 7.93446 55.62Z" fill="#D1D1D1"/>
<path d="M46.9145 84.31H67.6045C68.2345 84.31 68.7445 84.82 68.7445 85.45C68.7445 86.08 68.2345 86.59 67.6045 86.59H46.5145L46.9145 84.31Z" fill="#B2B2B2"/>
<path d="M26.6845 70.41C26.6845 72.23 25.2045 73.71 23.3845 73.71C21.5645 73.71 20.0845 72.23 20.0845 70.41C20.0845 68.59 21.5645 67.11 23.3845 67.11C25.2045 67.11 26.6845 68.58 26.6845 70.41Z" fill="white"/>
<path d="M88.4745 45.49C88.8845 45.67 102.454 52.34 89.1045 73.01C89.1045 73.01 80.5745 73.15 75.6345 66.8C75.6245 66.8 77.2645 40.57 88.4745 45.49Z" fill="#FF9C1A"/>
<path d="M59.1845 157.48C59.0045 156.94 58.4145 156.74 58.0145 157.09C57.2345 157.78 55.8345 158.63 53.7745 158.42C51.6245 158.21 50.8245 156.94 50.5145 156.03C50.3545 155.55 49.8945 155.31 49.4845 155.51L36.4645 162.05C35.6745 162.45 35.0545 163.19 34.7545 164.11C34.4645 164.98 35.0445 165.91 35.8645 165.89L58.3545 165.27C59.2445 165.25 59.9145 164.38 59.8445 163.37L59.4745 158.41C59.4645 158.33 59.4545 158.25 59.4245 158.17L59.1845 157.48Z" fill="#180401"/>
<path d="M26.3545 148.92C26.3145 148.35 25.8045 148 25.3345 148.24C24.4045 148.7 22.8345 149.15 20.8945 148.41C18.8845 147.64 18.4345 146.21 18.3745 145.25C18.3445 144.75 17.9645 144.39 17.5145 144.48L3.23446 147.39C2.36446 147.57 1.57446 148.12 1.03446 148.93C0.524462 149.69 0.844468 150.74 1.63447 150.93L23.5045 156.22C24.3645 156.43 25.2445 155.77 25.4345 154.77L26.3745 149.89C26.3945 149.81 26.3945 149.73 26.3945 149.64L26.3545 148.92Z" fill="#180401"/>
</svg>
